<?xml version="1.0" encoding="utf-8"?>
<!-- Generator: Adobe Illustrator 25.0.0, SVG Export Plug-In . SVG Version: 6.00 Build 0)  -->
<svg version="1.1" id="FINAL-1A" xmlns="http://www.w3.org/2000/svg" xmlns:xlink="http://www.w3.org/1999/xlink" x="0px" y="0px"
	 viewBox="0 0 512 512" style="enable-background:new 0 0 512 512;" xml:space="preserve">
<style type="text/css">
	.st0{clip-path:url(#SVGID_2_);}
	.st1{fill:url(#SVGID_3_);}
	.st2{clip-path:url(#SVGID_5_);}
	.st3{fill:url(#SVGID_6_);}
	.st4{clip-path:url(#SVGID_8_);}
	.st5{fill:url(#SVGID_9_);}
</style>
<g>
	<g>
		<defs>
			<path id="SVGID_1_" d="M260.2,416.1c-19.9-0.1-35.6-0.1-51.4-0.4c-8.6-0.1-17.3-0.5-25.9-1.2c-11.9-0.7-23.5-3.4-34.5-8
				c-21.2-9.3-36-24.7-44.4-46.3c-3.1-8.1-5.1-16.6-6.1-25.3c-0.7-6-1.1-12.1-1.3-18.1c-0.3-11.7-0.6-23.4-0.7-35.1
				c-0.1-17.2-0.1-34.4,0-51.6c0-7.5,0.1-15,0.3-22.4c0.2-7.2,0.5-14.5,0.9-21.7c0.8-13.1,3.2-25.9,8.5-37.9
				c8.9-20.2,23.6-34.6,44-43.1c9.9-4.1,20.4-6.5,31.1-7.4c14.1-1.2,28.2-1.5,42.3-1.6c25.3,0,50.6-0.1,75.9,0.1
				c10,0.1,20,0.6,30.1,1.2c11.9,0.6,23.6,3.3,34.6,8c21.3,9.3,36.2,24.9,44.5,46.6c3.2,8.6,5.3,17.7,6.3,26.8
				c0.7,6.7,1,13.5,1.2,20.3c0.6,13.4,0.5,26.9,0.5,40.3c0,18.2,0.1,36.5-0.1,54.7c-0.1,10-0.5,20.1-0.9,30.1
				c-0.4,10.3-2.1,20.6-5.1,30.5c-3,10.1-8,19.6-14.5,27.9c-9.6,12-22.4,21.1-36.9,26.2c-8.7,3.1-17.8,5.1-27.1,5.8
				c-7.7,0.6-15.5,1.1-23.2,1.2C290.9,415.9,273.5,416,260.2,416.1z M124.8,255.9c0,5,0,10,0,15c0,14.5-0.1,28.9,0.6,43.4
				c0.3,6,0.5,12,1.3,18c0.8,7.1,2.7,14,5.5,20.6c4.9,11.2,13.5,20.4,24.5,25.8c8.2,4,17.1,6.4,26.2,7c6.8,0.6,13.6,1,20.4,1.1
				c9.2,0.3,18.3,0.4,27.5,0.4c23,0,45.9-0.1,68.9-0.2c9.8-0.1,19.5-0.4,29.3-1.3c7.4-0.6,14.6-2.3,21.5-4.9
				c12.4-4.7,22.6-14,28.4-26c4-8.3,6.3-17.3,6.9-26.4c0.6-7.2,0.9-14.4,1.1-21.6c0.3-9.2,0.4-18.4,0.4-27.6
				c0.1-17.1,0.1-34.1,0-51.2c0-8.4-0.2-16.9-0.4-25.4c-0.2-7.1-0.4-14.2-1.2-21.3c-0.7-7.1-2.5-14.2-5.2-20.8
				c-4.8-12-14-21.8-25.6-27.4c-8-3.8-16.7-6.1-25.5-6.7c-7.5-0.6-15-1-22.6-1.2c-9.7-0.3-19.5-0.4-29.2-0.3
				c-28.6,0.1-57.2-0.5-85.8,0.9c-6.8,0.2-13.5,1-20.1,2.4c-6.7,1.4-13.2,3.9-19.1,7.5c-10.5,6.5-18.3,16.5-22.2,28.2
				c-2.6,7.9-4.1,16.1-4.4,24.4c-0.5,8.8-0.8,17.6-0.9,26.4C124.8,228.4,124.8,255.9,124.8,255.9z"/>
		</defs>
		<clipPath id="SVGID_2_">
			<use xlink:href="#SVGID_1_"  style="overflow:visible;"/>
		</clipPath>
		<g class="st0">
			
				<radialGradient id="SVGID_3_" cx="178.12" cy="74.09" r="437.2" gradientTransform="matrix(1 0 0 -1 0 514)" gradientUnits="userSpaceOnUse">
				<stop  offset="3.000000e-02" style="stop-color:#FEDD76"/>
				<stop  offset="0.29" style="stop-color:#FB741E"/>
				<stop  offset="0.5" style="stop-color:#DE286F"/>
				<stop  offset="0.74" style="stop-color:#A030B6"/>
				<stop  offset="0.96" style="stop-color:#436DEF"/>
			</radialGradient>
			<path class="st1" d="M125.9,81.8h260.3c24.3,0,44,19.7,44,44v260.3c0,24.3-19.7,44-44,44H125.9c-24.3,0-44-19.7-44-44V125.8
				C81.9,101.5,101.6,81.8,125.9,81.8z"/>
		</g>
	</g>
	<g>
		<defs>
			<path id="SVGID_4_" d="M255.9,338.2c-45.4-0.1-82.2-36.9-82.1-82.4s36.9-82.2,82.4-82.1c45.4,0.1,82.1,36.9,82.1,82.2
				c0,45.4-36.8,82.2-82.2,82.3C256,338.3,256,338.3,255.9,338.2z M202.7,255.8c-0.1,29.5,23.7,53.5,53.2,53.6
				c29.5,0.1,53.5-23.7,53.6-53.2c0.1-29.4-23.7-53.4-53.1-53.6C226.9,202.5,202.8,226.3,202.7,255.8
				C202.7,255.8,202.7,255.8,202.7,255.8L202.7,255.8z"/>
		</defs>
		<clipPath id="SVGID_5_">
			<use xlink:href="#SVGID_4_"  style="overflow:visible;"/>
		</clipPath>
		<g class="st2">
			
				<radialGradient id="SVGID_6_" cx="178.16" cy="73.99" r="437.2" gradientTransform="matrix(1 0 0 -1 0 514)" gradientUnits="userSpaceOnUse">
				<stop  offset="3.000000e-02" style="stop-color:#FEDD76"/>
				<stop  offset="0.29" style="stop-color:#FB741E"/>
				<stop  offset="0.5" style="stop-color:#DE286F"/>
				<stop  offset="0.74" style="stop-color:#A030B6"/>
				<stop  offset="0.96" style="stop-color:#436DEF"/>
			</radialGradient>
			<path class="st3" d="M125.9,82h260.3c24.3,0,44,19.7,44,44v260.3c0,24.3-19.7,44-44,44H125.9c-24.3,0-44-19.7-44-44V126
				C81.9,101.7,101.6,82,125.9,82z"/>
		</g>
	</g>
	<g>
		<defs>
			<path id="SVGID_7_" d="M341.6,151.2c10.6,0.1,19.2,8.7,19.1,19.4c-0.1,10.6-8.7,19.2-19.4,19.1s-19.2-8.7-19.1-19.4
				c0-0.1,0-0.1,0-0.2C322.5,159.6,331.1,151.1,341.6,151.2z"/>
		</defs>
		<clipPath id="SVGID_8_">
			<use xlink:href="#SVGID_7_"  style="overflow:visible;"/>
		</clipPath>
		<g class="st4">
			
				<radialGradient id="SVGID_9_" cx="178.12" cy="74.09" r="437.2" gradientTransform="matrix(1 0 0 -1 0 514)" gradientUnits="userSpaceOnUse">
				<stop  offset="3.000000e-02" style="stop-color:#FEDD76"/>
				<stop  offset="0.29" style="stop-color:#FB741E"/>
				<stop  offset="0.5" style="stop-color:#DE286F"/>
				<stop  offset="0.74" style="stop-color:#A030B6"/>
				<stop  offset="0.96" style="stop-color:#436DEF"/>
			</radialGradient>
			<path class="st5" d="M125.9,81.8h260.3c24.3,0,44,19.7,44,44v260.3c0,24.3-19.7,44-44,44H125.9c-24.3,0-44-19.7-44-44V125.8
				C81.9,101.5,101.6,81.8,125.9,81.8z"/>
		</g>
	</g>
</g>
</svg>
